<?xml version="1.0" encoding="UTF-8"?>
<svg width="517" height="120" viewBox="0 0 517 120" fill="none" xmlns="http://www.w3.org/2000/svg">
<path d="M294.866 11.2881H304.463L319.37 40.547H310.128L307.61 35.625H291.053L288.535 40.547H279.959L294.866 11.2881ZM304.502 29.5599L299.312 19.3603L294.123 29.5599H304.507H304.502Z" fill="white"/>
<path d="M322.2 11.4028H341.591C347.807 11.4028 354.493 12.5076 354.493 21.5642C354.493 30.6208 347.218 31.7638 341.591 31.7638H330.694V40.5469H322.2V11.4028ZM341.903 25.3432C345.322 25.3432 346.109 23.8064 346.109 21.7993C346.109 19.7922 345.322 18.2554 341.903 18.2554H330.694V25.3432H341.903Z" fill="white"/>
<path d="M357.913 11.4028H387.016V18.4906H366.483V22.4665H383.318V29.1223H366.483V33.6506H387.721V40.5415H357.907V11.4028H357.913Z" fill="white"/>
<path d="M402.311 25.622L389.491 11.4082H399.913L407.779 20.1531L415.29 11.4082H424.925L412.498 25.3869L426.226 40.5468H415.803L407.031 30.8613L398.69 40.5468H389.016L402.311 25.622Z" fill="white"/>
<path d="M292.703 52.9506H280.276V45.8628H313.908V52.9506H301.481V75.0014H292.708V52.9506H292.703Z" fill="white"/>
<path d="M317.049 45.8575H337.385C344.94 45.8575 349.616 48.2584 349.616 55.5431C349.616 60.1917 347.808 62.7894 344.148 64.1676L350.085 74.9962H341.04L335.654 65.3106H325.466V74.9962H317.049V45.8521V45.8575ZM337.069 58.8572C340.018 58.8572 341.275 58.0697 341.275 55.7837C341.275 53.4977 340.018 52.7101 337.069 52.7101H325.466V58.8518H337.069V58.8572Z" fill="white"/>
<path d="M366.839 45.7427H376.436L391.343 75.0016H382.1L379.582 70.0796H363.026L360.508 75.0016H351.932L366.839 45.7427ZM376.474 64.0145L371.285 53.8149L366.096 64.0145H376.48H376.474Z" fill="white"/>
<path d="M394.172 45.8575H412.029C420.567 45.8575 428.154 49.4397 428.154 60.1917C428.154 70.9437 420.447 74.9962 412.029 74.9962H394.172V45.8521V45.8575ZM412.105 68.2693C418.163 68.2693 419.578 64.7637 419.578 60.3175C419.578 56.3032 418.163 52.7976 412.023 52.7976H402.699V68.2748H412.1L412.105 68.2693Z" fill="white"/>
<path d="M431.928 45.8575H461.032V52.9453H440.499V56.9212H457.334V63.577H440.499V68.1053H461.737V74.9962H431.923V45.8521L431.928 45.8575Z" fill="white"/>
<path d="M465.435 45.8575H485.771C493.326 45.8575 498.002 48.2584 498.002 55.5431C498.002 60.1917 496.193 62.7894 492.534 64.1676L498.471 74.9962H489.426L484.034 65.3106H473.847V74.9962H465.429V45.8521L465.435 45.8575ZM485.454 58.8572C488.404 58.8572 489.666 58.0697 489.666 55.7837C489.666 53.4977 488.41 52.7101 485.454 52.7101H473.852V58.8518H485.454V58.8572Z" fill="white"/>
<path d="M282.242 80.312H310.641V87.3998H290.818V92.6008H306.943V99.2565H290.818V109.456H282.242V80.312Z" fill="white"/>
<path d="M313.034 97.5228V80.312H321.61V97.326C321.61 101.264 324.832 102.839 330.3 102.839C335.768 102.839 338.953 101.225 338.953 97.2877V80.312H347.332V97.4791C347.332 105.475 341.433 109.883 330.224 109.883C319.015 109.883 313.034 105.469 313.034 97.5174V97.5228Z" fill="white"/>
<path d="M351.855 80.312H361.376L377.736 97.9932V80.312H385.957V109.456H377.539L360.076 90.7523V109.456H351.855V80.312Z" fill="white"/>
<path d="M391.064 80.3121H408.921C417.459 80.3121 425.046 83.8943 425.046 94.6463C425.046 105.398 417.339 109.451 408.921 109.451H391.064V80.3066V80.3121ZM409.003 102.724C415.061 102.724 416.476 99.2183 416.476 94.772C416.476 90.7578 415.061 87.2522 408.921 87.2522H399.597V102.729H408.998L409.003 102.724Z" fill="white"/>
<path d="M429.055 80.312H437.631V109.456H429.055V80.312Z" fill="white"/>
<path d="M443.017 80.312H452.538L468.898 97.9932V80.312H477.119V109.456H468.701L451.238 90.7523V109.456H443.017V80.312Z" fill="white"/>
<path d="M480.894 94.8044C480.894 85.5126 488.055 79.7593 499.302 79.7593C509.058 79.7593 514.679 82.9094 516.727 88.701L508.544 91.1019C507.599 87.9518 502.88 86.8088 499.264 86.8088C495.052 86.8088 489.508 88.2252 489.508 94.6458C489.508 101.066 493.719 103.27 499.657 103.27C505.201 103.27 507.878 102.127 508.899 100.241H499.892V94.252H517V109.45H510.314V105.868C509.883 107.049 506.223 110.003 498.554 110.003C486.006 110.003 480.894 103.385 480.894 94.8044Z" fill="white"/>
<path d="M239.253 21.9472C240.662 19.169 241.252 15.9095 240.662 12.475C239.428 5.25594 233.015 -0.0434828 225.695 0.000268926C223.761 0.0112069 221.877 0.388565 220.063 1.13234L219.337 1.47142L116.857 49.3959L69.8091 17.3041L69.1044 16.8228C64.74 13.9571 59.6763 12.4367 54.4597 12.4367C44.2286 12.4367 34.7514 18.4197 30.3159 27.6787L0.136126 89.2756C-0.284479 90.1343 0.338235 91.1351 1.29416 91.1351C1.68745 91.1351 2.05889 90.9546 2.3047 90.6483L49.8221 30.9491L91.2381 61.3784L41.7323 84.5286C41.0714 84.8348 40.7764 85.6169 41.0659 86.2841C41.3445 86.9349 42.0819 87.2576 42.7538 87.0224L98.9838 67.0716L165.248 115.849L165.232 115.833C168.564 118.442 172.754 120 177.298 120C184.727 120 191.429 115.871 194.811 109.226L194.838 109.183L195.013 108.838L239.269 21.9308L239.253 21.9527V21.9472ZM127.787 56.8556L210.373 27.5529L175.25 89.2319L127.787 56.8556Z" fill="white"/>
<path d="M495.899 22.4177H493.102V20.8208H500.667V22.4177H497.871V27.3781H495.899V22.4177Z" fill="white"/>
<path d="M501.377 20.8262H504.207L506.359 25.442L508.571 20.8262H511.281V27.3835H509.363V22.8278L507.206 27.3835H505.338L503.185 22.7403V27.3835H501.383V20.8262H501.377Z" fill="white"/>
<path d="M502.191 36.8012C495.2 36.8012 489.508 31.108 489.508 24.1023C489.508 17.0965 495.194 11.4033 502.191 11.4033C509.189 11.4033 514.875 17.0965 514.875 24.1023C514.875 31.108 509.189 36.8012 502.191 36.8012ZM502.191 13.3393C496.265 13.3393 491.441 18.1684 491.441 24.1023C491.441 30.0361 496.265 34.8652 502.191 34.8652C508.118 34.8652 512.941 30.0361 512.941 24.1023C512.941 18.1684 508.118 13.3393 502.191 13.3393Z" fill="white"/>
</svg>
