<svg role="img" aria-label="FundedNext" viewBox="0 0 183.655 17.5152" fill="none" xmlns="http://www.w3.org/2000/svg"><path d="M14.1991 9.83394H3.27514V17.4787H0V2.50076C0 1.82032 0.24595 1.23007 0.737834 0.742281C1.22972 0.250396 1.81587 0.00445914 2.49631 0.00445914H14.1991V3.27959H3.27514V6.55471H14.1991V9.82984V9.83394Z" fill="#fff"/><path d="M128.01 0.00449559V9.3831L118.152 0.00449559H128.01Z" fill="#635BFF"/><path d="M112.743 0.0215546H111.788C111.16 0.0502478 110.619 0.292103 110.164 0.751195C109.742 1.1734 109.5 1.66938 109.443 2.23915V17.4835H112.718V5.19044L125.704 17.4835H128.012V14.5609L112.743 0.0215546Z" fill="#fff"/><path d="M33.3329 15.8879C33.3329 16.1174 33.2919 16.3265 33.21 16.5232C33.128 16.72 33.0132 16.888 32.8697 17.0274C32.7263 17.1668 32.5541 17.2815 32.3574 17.3635C32.1606 17.4455 31.9557 17.4865 31.7343 17.4865H24.5897C23.9133 17.4865 23.2329 17.4127 22.5402 17.2651C21.8474 17.1176 21.1793 16.8921 20.5357 16.5888C19.8881 16.2855 19.2814 15.8961 18.7117 15.4247C18.1419 14.9533 17.6459 14.3958 17.2196 13.7482C16.7933 13.1005 16.4572 12.3627 16.2153 11.5306C15.9694 10.6985 15.8505 9.76801 15.8505 8.74325V0.00410304H19.0191V8.74325C19.0191 9.63685 19.1421 10.3952 19.3921 11.01C19.638 11.629 19.9537 12.1455 20.3349 12.5595C20.7161 12.9735 21.1342 13.2973 21.5892 13.535C22.0442 13.7728 22.4787 13.9449 22.8886 14.0597C23.2985 14.1745 23.6592 14.2442 23.9748 14.2729C24.2864 14.3015 24.4913 14.3138 24.5897 14.3138H30.1603V0H33.3288V15.8838L33.3329 15.8879Z" fill="#fff"/><path d="M52.0108 15.9575C52.0108 16.1789 51.9698 16.3838 51.8879 16.5765C51.8059 16.765 51.6952 16.929 51.5558 17.0684C51.4165 17.2077 51.2525 17.3143 51.064 17.3963C50.8754 17.4742 50.6704 17.5152 50.4573 17.5152C50.2687 17.5152 50.0761 17.4783 49.8834 17.4086C49.6908 17.3389 49.5186 17.2241 49.3669 17.0643L38.0823 5.27955V17.4865H34.9916V1.56172C34.9916 1.24609 35.0818 0.959168 35.2581 0.700928C35.4384 0.442689 35.6639 0.25002 35.9426 0.12295C36.2336 0.004078 36.537 -0.0246033 36.8444 0.0327833C37.1518 0.0942688 37.4183 0.237734 37.6396 0.46728L48.9243 12.2397V0.0122681H52.0149V15.9575H52.0108Z" fill="#fff"/><path d="M71.1356 10.1697C71.1356 11.2355 70.9512 12.2151 70.5823 13.1087C70.2133 14.0023 69.701 14.7729 69.0533 15.4206C68.4016 16.0682 67.6309 16.5724 66.7374 16.9372C65.8438 17.302 64.8723 17.4865 63.8229 17.4865H55.2641C55.0346 17.4865 54.8256 17.4455 54.6288 17.3635C54.4321 17.2815 54.264 17.1709 54.1246 17.0274C53.9812 16.8839 53.8705 16.7159 53.7885 16.5232C53.7065 16.3265 53.6655 16.1174 53.6655 15.8879V1.59863C53.6655 1.37729 53.7065 1.17233 53.7885 0.975573C53.8705 0.778819 53.9812 0.610759 54.1246 0.463193C54.2681 0.315628 54.4361 0.204947 54.6288 0.122966C54.8256 0.0409854 55.0346 0 55.2641 0H63.8229C64.8723 0 65.8438 0.184443 66.7374 0.549257C67.6309 0.914071 68.4016 1.42236 69.0533 2.06591C69.7051 2.71355 70.2133 3.48418 70.5823 4.38187C70.9512 5.27956 71.1356 6.25922 71.1356 7.31267V10.1656V10.1697ZM67.9671 7.31677C67.9671 6.69782 67.8687 6.13625 67.6678 5.62387C67.467 5.11149 67.1842 4.67291 66.8193 4.3122C66.4545 3.95148 66.0159 3.66863 65.5076 3.47187C64.9994 3.27102 64.4378 3.17265 63.8188 3.17265H56.8341V14.3138H63.8188C64.4378 14.3138 64.9994 14.2155 65.5076 14.0146C66.0159 13.8179 66.4504 13.535 66.8193 13.1743C67.1842 12.8136 67.467 12.3791 67.6678 11.8708C67.8646 11.3625 67.9671 10.7969 67.9671 10.1697V7.31677Z" fill="#fff"/><path d="M88.6639 17.4866H77.2276C76.789 17.4866 76.3094 17.4087 75.7888 17.2571C75.2682 17.1013 74.7886 16.8472 74.3459 16.4947C73.9032 16.1421 73.5343 15.6831 73.2351 15.1174C72.94 14.5517 72.7924 13.859 72.7924 13.0392V1.60285C72.7924 1.3815 72.8334 1.17656 72.9154 0.97981C72.9974 0.783056 73.108 0.614996 73.2515 0.46743C73.395 0.319865 73.563 0.209184 73.7557 0.127203C73.9524 0.0452223 74.1615 0.00423697 74.391 0.00423697H88.668V3.17279H75.9651V13.0351C75.9651 13.4491 76.0757 13.7647 76.293 13.986C76.5143 14.2074 76.8341 14.314 77.2563 14.314H88.668V17.4825L88.6639 17.4866ZM87.2374 10.342H77.2276V7.14886H87.2374V10.342Z" fill="#fff"/><path d="M107.787 10.1697C107.787 11.2355 107.602 12.2151 107.233 13.1087C106.864 14.0023 106.352 14.7729 105.704 15.4206C105.053 16.0682 104.282 16.5724 103.388 16.9372C102.495 17.302 101.523 17.4865 100.474 17.4865H91.9152C91.6857 17.4865 91.4767 17.4455 91.2799 17.3635C91.0831 17.2815 90.9151 17.1709 90.7757 17.0274C90.6323 16.8839 90.5216 16.7159 90.4396 16.5232C90.3576 16.3265 90.3166 16.1174 90.3166 15.8879V1.59863C90.3166 1.37729 90.3576 1.17233 90.4396 0.975573C90.5216 0.778819 90.6323 0.610759 90.7757 0.463193C90.9192 0.315628 91.0872 0.204947 91.2799 0.122966C91.4767 0.0409854 91.6857 0 91.9152 0H100.474C101.523 0 102.495 0.184443 103.388 0.549257C104.282 0.914071 105.053 1.42236 105.704 2.06591C106.356 2.71355 106.864 3.48418 107.233 4.38187C107.602 5.27956 107.787 6.25922 107.787 7.31267V10.1656V10.1697ZM104.618 7.31677C104.618 6.69782 104.52 6.13625 104.319 5.62387C104.118 5.11149 103.835 4.67291 103.47 4.3122C103.106 3.95148 102.667 3.66863 102.159 3.47187C101.65 3.27102 101.089 3.17265 100.47 3.17265H93.4852V14.3138H100.47C101.089 14.3138 101.65 14.2155 102.159 14.0146C102.667 13.8179 103.102 13.535 103.47 13.1743C103.835 12.8136 104.118 12.3791 104.319 11.8708C104.516 11.3625 104.618 10.7969 104.618 10.1697V7.31677Z" fill="#fff"/><path d="M145.539 17.4866H134.102C133.664 17.4866 133.184 17.4087 132.664 17.2571C132.143 17.1013 131.663 16.8472 131.221 16.4947C130.778 16.1421 130.409 15.6831 130.11 15.1174C129.815 14.5517 129.667 13.859 129.667 13.0392V1.60285C129.667 1.3815 129.708 1.17656 129.79 0.97981C129.872 0.783056 129.983 0.614996 130.126 0.46743C130.27 0.319865 130.438 0.209184 130.631 0.127203C130.827 0.0452223 131.036 0.00423697 131.266 0.00423697H145.543V3.17279H132.84V13.0351C132.84 13.4491 132.951 13.7647 133.168 13.986C133.389 14.2074 133.709 14.314 134.131 14.314H145.543V17.4825L145.539 17.4866ZM144.112 10.342H134.102V7.14886H144.112V10.342Z" fill="#fff"/><path d="M156 6.24706L161.341 0.00423697H165.669L158.147 8.76798L165.62 17.4866H161.316L156 11.293L150.708 17.4866H146.391L153.852 8.76798L146.367 0.00423697H150.658L156 6.24706Z" fill="#fff"/><path d="M183.651 3.17279H176.666V17.4866H173.497V3.17279H166.5V0.00423697H183.655V3.17279H183.651Z" fill="#fff"/></svg>
