<svg width="130" height="32" viewBox="0 0 130 32" fill="none" xmlns="http://www.w3.org/2000/svg">
<g clip-path="url(#clip0_1_81161)">
<path d="M0.4 9.2C0.8 8.88 1.44 8.8 1.92 9.36C2.24 9.76 2.4 10.88 2.48 11.2C2.64 12.32 2.88 13.92 2.88 15.12C2.88 15.2 2.88 15.28 2.88 15.36C2.88 15.84 3.04 16.32 3.2 16.8C4.48 19.28 6.72 22.4 6.72 22.4L6.88 22.56C6.96 22.72 7.2 22.72 7.28 22.64C7.44 22.56 7.52 22.32 7.44 22.16L4.4 17.2C4.08 16.64 4.24 15.84 4.88 15.52C5.52 15.2 6.24 15.36 6.64 15.92L9.84 20C10.08 20.32 10.48 20.64 10.72 20.88C13.6 22.96 14 25.04 14.24 26.08C14.24 26.08 14.24 26.32 14.24 26.72C14.24 27.04 14.24 27.36 14.16 27.68L14 31.12C14 31.36 13.76 31.6 13.52 31.6H8.16C7.92 31.6 7.68 31.36 7.68 31.12L7.6 28.32L2.4 22.08C1.68 21.28 1.12 20.4 0.96 19.28L0.88 18.96L0 10.32C0 9.92 0.08 9.44 0.4 9.2ZM3.84 14.48C3.84 14.56 3.84 14.64 3.84 14.8C3.92 14.72 4.08 14.64 4.16 14.56C4.32 14.48 4.48 14.4 4.64 14.32C4.56 13.44 4.24 11.76 4 10.88C3.92 10.48 3.6 10.16 3.2 10C3.28 10.32 3.36 10.64 3.44 10.88C3.6 11.84 3.84 13.52 3.84 14.48ZM5.6 14.16C5.84 14.16 6.16 14.24 6.4 14.32C6.32 13.76 5.92 12.56 5.76 12.08C5.68 11.68 5.44 11.36 4.96 11.2C5.12 11.84 5.44 13.04 5.6 13.68V14.08C5.6 14.08 5.6 14.08 5.6 14.16ZM32.4 9.28C32.08 9.68 31.92 10.8 31.84 11.12C31.68 12.24 31.44 13.84 31.44 15.04C31.44 15.12 31.44 15.2 31.44 15.28C31.44 15.76 31.28 16.24 31.12 16.72C29.92 19.2 27.6 22.4 27.6 22.4L27.44 22.56C27.36 22.72 27.12 22.72 27.04 22.64C26.88 22.56 26.8 22.32 26.88 22.16L29.92 17.2C30.24 16.64 30.08 15.84 29.44 15.52C28.8 15.2 28.08 15.36 27.68 15.92L24.48 20C24.24 20.32 23.84 20.64 23.6 20.88C20.72 22.96 20.32 25.04 20.08 26.08C20.08 26.08 20.08 26.32 20.08 26.72C20.08 27.04 20.08 27.36 20.16 27.68L20.32 31.12C20.32 31.36 20.56 31.6 20.8 31.6H26.16C26.4 31.6 26.64 31.36 26.64 31.12L26.72 28.32L31.84 22.16C32.56 21.36 33.12 20.48 33.28 19.36V19.04L34.16 10.4C34.16 10 34.08 9.52 33.76 9.28C33.52 8.88 32.88 8.8 32.4 9.28ZM29.6 14.24C29.76 14.32 29.92 14.4 30.08 14.48C30.24 14.56 30.32 14.64 30.4 14.72C30.4 14.64 30.4 14.56 30.4 14.4C30.4 13.44 30.64 11.68 30.8 10.72C30.8 10.4 30.88 10.08 31.04 9.84C30.56 10 30.32 10.32 30.24 10.72C30.08 11.68 29.76 13.36 29.6 14.24ZM28 14.32C28.24 14.24 28.48 14.16 28.8 14.16V14.08L28.88 13.68C28.96 13.04 29.36 11.84 29.52 11.2C29.12 11.36 28.88 11.68 28.72 12.08C28.4 12.56 28.08 13.76 28 14.32ZM13.28 7.6H8.96V16.4H13.28V7.6ZM15.04 0H19.36V16.4H15.04V0ZM18.16 13.84L16.72 15.28H18.16V13.84ZM16.16 2.56L17.52 1.2H16.16V2.56ZM16.16 5.52L18.16 3.52V2.08L16.16 4.08V5.52ZM16.16 8.48L18.16 6.4V5.04L16.16 7.04V8.48ZM16.16 11.44L18.16 9.44V8L16.16 10V11.44ZM16.16 14.32L18.16 12.32V10.88L16.16 12.88V14.32ZM21.12 4H25.44V16.4H21.12V4ZM22.24 15.28H24.24V5.2H22.24V15.28Z" fill="white"/>
<path d="M48.7198 24.2401C49.3598 24.2401 49.7598 24.1601 50.2398 24.0001V26.8801C49.7598 27.1201 48.9598 27.2801 47.8398 27.2801C45.9198 27.2801 44.3998 26.6401 44.3998 23.2001V18.7201H42.7998V15.9201H44.3998V13.2801H47.8398V15.9201H50.2398V18.7201H47.8398V23.2001C47.8398 23.6801 47.9198 24.2401 48.7198 24.2401ZM59.2798 15.6801C59.5998 15.6801 59.9198 15.6801 60.1598 15.7601V19.0401C59.9198 18.9601 59.5998 18.9601 59.3598 18.9601C57.2798 18.9601 55.5998 20.4801 55.4398 22.5601V27.1201H51.9998V15.8401H55.4398V18.5601C55.9998 16.8801 57.2798 15.6801 59.2798 15.6801ZM69.8398 15.8401H73.2798V27.1201H69.8398V26.0001C69.6798 26.4001 68.6398 27.3601 66.9598 27.3601C64.3998 27.3601 61.4398 25.5201 61.4398 21.5201C61.4398 17.6001 64.3998 15.6801 66.9598 15.6801C68.7198 15.6801 69.6798 16.6401 69.8398 16.8801V15.8401ZM67.4398 24.3201C68.8798 24.3201 69.9998 23.3601 69.9998 21.4401C69.9998 19.6001 68.8798 18.6401 67.4398 18.6401C65.9998 18.6401 64.7198 19.6001 64.7198 21.4401C64.7198 23.2801 65.9198 24.3201 67.4398 24.3201ZM83.5998 11.7601H87.0398V17.2801V27.1201H83.5998V26.0001C83.4398 26.4001 82.3998 27.3601 80.7198 27.3601C78.1598 27.3601 75.1998 25.5201 75.1998 21.5201C75.1998 17.6001 78.1598 15.6801 80.7198 15.6801C82.4798 15.6801 83.4398 16.6401 83.5998 16.8801V11.7601ZM81.1998 24.3201C82.6398 24.3201 83.7598 23.3601 83.7598 21.4401C83.7598 19.6001 82.6398 18.6401 81.1998 18.6401C79.7598 18.6401 78.4798 19.6001 78.4798 21.4401C78.3998 23.2801 79.6798 24.3201 81.1998 24.3201ZM94.7998 15.6801C97.3598 15.6801 100.96 17.6001 100.24 22.7201H92.3998C92.7998 23.9201 93.8398 24.4801 95.1998 24.4801C96.5598 24.4801 97.0398 24.1601 97.7598 23.8401L99.6798 25.6801C98.7198 26.6401 97.3598 27.3601 95.0398 27.3601C92.2398 27.3601 88.8798 25.4401 88.8798 21.5201C88.8798 17.6001 92.2398 15.6801 94.7998 15.6801ZM94.7998 18.5601C93.8398 18.5601 92.7998 19.1201 92.3998 20.2401H97.1998C96.7998 19.1201 95.7598 18.5601 94.7998 18.5601ZM105.6 11.7601V14.6401H102.16V11.7601H105.6ZM105.6 15.8401V27.1201H102.16V15.8401H105.6ZM113.04 14.4001C112.08 14.4001 112.08 15.2801 112.08 15.5201V15.8401H114.4V18.6401H112.08V27.1201H108.64V18.6401H107.12V15.8401H108.64V15.5201C108.64 12.0001 111.28 11.6001 112.64 11.6001C113.76 11.6001 114.8 11.8401 115.6 12.3201L114.48 14.7201C113.84 14.4801 113.6 14.4001 113.04 14.4001ZM125.76 15.7601H129.2L122.24 31.2001H118.8L120.88 26.7201L116 15.7601H119.44L122.64 23.0401L125.76 15.7601Z" fill="white"/>
</g>
<defs>
<clipPath id="clip0_1_81161">
<rect width="129.6" height="32" fill="white"/>
</clipPath>
</defs>
</svg>
